<svg width="250" height="250" viewBox="0 0 250 250" fill="none" xmlns="http://www.w3.org/2000/svg">
<rect width="250" height="250" fill="#07011A"/>
<path d="M132.127 135.206C132.127 161.068 132.127 186.628 132.127 212.059C130.81 212.55 130.533 211.767 130.173 211.212C126.932 206.232 123.737 201.222 120.463 196.264C119.024 194.084 118.435 191.789 118.438 189.156C118.484 146.233 118.467 103.311 118.46 60.3878C118.459 54.3123 116.729 52.5967 110.536 52.594C89.3774 52.5849 68.2178 52.52 47.0598 52.6749C43.9481 52.6977 42.3199 51.7126 41.0918 48.9405C39.3557 45.0222 37.2119 41.2844 35 37C95.0802 37 154.681 37 215 37C212.107 42.3064 209.575 47.0662 206.914 51.7523C206.207 52.9982 204.741 52.5674 203.567 52.5681C182.206 52.5807 160.846 52.5755 139.485 52.5829C138.084 52.5834 136.681 52.4808 135.338 53.1366C132.843 54.355 132.074 56.3175 132.084 59.0341C132.16 78.3793 132.123 97.7248 132.123 117.07C132.123 123.015 132.125 128.959 132.127 135.206Z" fill="white"/>
<path d="M140.807 149.72C140.807 121.31 140.852 93.2026 140.745 65.0958C140.733 62.1016 141.467 61.1084 144.586 61.133C162.417 61.2735 180.249 61.1961 198.08 61.2207C199.137 61.2221 200.292 60.905 201.541 61.9853C198.41 67.616 195.881 73.6179 192.382 79.122C191.338 80.7631 189.687 81.0015 187.879 80.9941C178.41 80.9551 168.938 81.0671 159.471 80.9098C156.606 80.8622 155.654 81.6735 155.67 84.6329C155.783 105.788 155.618 126.945 155.795 148.1C155.851 154.721 154.576 160.919 151.666 166.757C148.747 172.611 145.523 178.313 142.406 184.067C142.147 184.546 141.971 185.225 140.807 185.202C140.807 173.475 140.807 161.748 140.807 149.72Z" fill="white"/>
<path d="M52.8531 61.2455C70.8718 61.2408 88.6045 61.2791 106.337 61.1838C108.898 61.1701 109.849 61.8055 109.843 64.5509C109.768 97.3961 109.811 130.242 109.809 163.087C109.809 163.746 110.108 164.513 108.901 165.381C103.087 157.502 95.3722 150.831 95.4315 139.735C95.5295 121.399 95.3957 103.061 95.5198 84.7247C95.5397 81.7918 94.655 80.923 91.7621 80.9651C81.689 81.1116 71.6118 80.961 61.5375 81.0579C59.3232 81.0792 58.0297 80.3515 57.0476 78.3591C54.7338 73.6651 52.2092 69.0753 49.8012 64.4271C49.3558 63.5672 48.58 62.7616 49.0301 61.6078C50.1494 60.9939 51.3832 61.3456 52.8531 61.2455Z" fill="white"/>
</svg>
