<svg width="180" height="176" viewBox="0 0 180 176" fill="#ffffff" xmlns="http://www.w3.org/2000/svg">
<path d="M97.1272 98.2065C97.1275 124.068 97.1275 149.628 97.1275 175.059C95.81 175.55 95.5335 174.767 95.1725 174.212C91.9315 169.232 88.7366 164.222 85.4628 159.264C84.0236 157.084 83.4353 154.789 83.4382 152.156C83.4845 109.233 83.4668 66.3105 83.4596 23.3878C83.4586 17.3123 81.7288 15.5967 75.5365 15.594C54.3774 15.5849 33.2178 15.52 12.0598 15.6749C8.94808 15.6977 7.3199 14.7126 6.09176 11.9405C4.35574 8.02217 2.2119 4.28445 0 0C60.0802 0 119.681 0 180 0C177.107 5.30644 174.575 10.0662 171.914 14.7523C171.207 15.9982 169.741 15.5674 168.567 15.5681C147.206 15.5807 125.846 15.5755 104.485 15.5829C103.084 15.5834 101.681 15.4808 100.338 16.1366C97.8427 17.355 97.0739 19.3175 97.0845 22.0341C97.16 41.3793 97.1231 60.7248 97.1229 80.0703C97.1228 86.0149 97.1255 91.9595 97.1272 98.2065Z" fill="#ffffff"/>
<path d="M105.807 112.72C105.807 84.31 105.852 56.2026 105.745 28.0958C105.733 25.1016 106.467 24.1084 109.586 24.133C127.417 24.2735 145.249 24.1961 163.08 24.2207C164.137 24.2221 165.292 23.905 166.541 24.9853C163.41 30.616 160.881 36.6179 157.382 42.122C156.338 43.7631 154.687 44.0015 152.879 43.9941C143.41 43.9551 133.938 44.0671 124.471 43.9098C121.606 43.8622 120.654 44.6735 120.67 47.6329C120.783 68.7882 120.618 89.9454 120.795 111.1C120.851 117.721 119.576 123.919 116.666 129.757C113.747 135.611 110.523 141.313 107.406 147.067C107.147 147.546 106.971 148.225 105.807 148.202C105.807 136.475 105.807 124.748 105.807 112.72Z" fill="#fffffff"/>
<path d="M17.8531 24.2455C35.8718 24.2408 53.6045 24.2791 71.3366 24.1838C73.8977 24.1701 74.8491 24.8055 74.8428 27.5509C74.7681 60.3961 74.8113 93.2417 74.8092 126.087C74.8092 126.746 75.1083 127.513 73.9015 128.381C68.0867 120.502 60.3722 113.831 60.4315 102.735C60.5295 84.3988 60.3957 66.0609 60.5198 47.7247C60.5397 44.7918 59.655 43.923 56.7621 43.9651C46.689 44.1116 36.6118 43.961 26.5375 44.0579C24.3232 44.0792 23.0297 43.3515 22.0476 41.3591C19.7338 36.6651 17.2092 32.0753 14.8012 27.4271C14.3558 26.5672 13.58 25.7616 14.0301 24.6078C15.1494 23.9939 16.3832 24.3456 17.8531 24.2455Z" fill="#ffffff"/>
</svg>
